<?xml version="1.0" encoding="UTF-8" standalone="no"?>
<!DOCTYPE svg PUBLIC "-//W3C//DTD SVG 1.1//EN"
 "http://www.w3.org/Graphics/SVG/1.1/DTD/svg11.dtd">
<!-- Generated by graphviz version 2.40.1 (20161225.0304)
 -->
<!-- Title: G Pages: 1 -->
<svg width="716pt" height="401pt"
 viewBox="0.00 0.00 715.50 401.00" xmlns="http://www.w3.org/2000/svg" xmlns:xlink="http://www.w3.org/1999/xlink">
<g id="graph0" class="graph" transform="scale(1 1) rotate(0) translate(4 397)">
<title>G</title>
<polygon fill="#ffffff" stroke="transparent" points="-4,4 -4,-397 711.5,-397 711.5,4 -4,4"/>
<!-- apparat/artefakt -->
<g id="node1" class="node">
<title>apparat/artefakt</title>
<path fill="#eeeeee" stroke="#000000" stroke-width="2" d="M89,-393C89,-393 12,-393 12,-393 6,-393 0,-387 0,-381 0,-381 0,-369 0,-369 0,-363 6,-357 12,-357 12,-357 89,-357 89,-357 95,-357 101,-363 101,-369 101,-369 101,-381 101,-381 101,-387 95,-393 89,-393"/>
<text text-anchor="middle" x="50.5" y="-371.3" font-family="Times,serif" font-size="14.00" fill="#314b5f">apparat/artefakt</text>
</g>
<!-- php -->
<g id="node2" class="node">
<title>php</title>
<path fill="#eeeeee" stroke="#000000" d="M321.5,-36C321.5,-36 291.5,-36 291.5,-36 285.5,-36 279.5,-30 279.5,-24 279.5,-24 279.5,-12 279.5,-12 279.5,-6 285.5,0 291.5,0 291.5,0 321.5,0 321.5,0 327.5,0 333.5,-6 333.5,-12 333.5,-12 333.5,-24 333.5,-24 333.5,-30 327.5,-36 321.5,-36"/>
<text text-anchor="middle" x="306.5" y="-14.3" font-family="Times,serif" font-size="14.00" fill="#314b5f">php</text>
</g>
<!-- apparat/artefakt&#45;&gt;php -->
<g id="edge1" class="edge">
<title>apparat/artefakt&#45;&gt;php</title>
<path fill="none" stroke="#1a2833" d="M44.904,-356.7338C40.29,-340.0448 34.5,-314.5995 34.5,-292 34.5,-292 34.5,-292 34.5,-101 34.5,-52.5307 194.5012,-29.5863 269.072,-21.5248"/>
<polygon fill="#1a2833" stroke="#1a2833" points="269.8435,-24.9633 279.4252,-20.4421 269.1154,-18.0013 269.8435,-24.9633"/>
<text text-anchor="middle" x="47" y="-206.5" font-family="Times,serif" font-size="10.00" fill="#767676">&gt;=7.2</text>
</g>
<!-- apparat/artefakt&#45;core -->
<g id="node3" class="node">
<title>apparat/artefakt&#45;core</title>
<path fill="#eeeeee" stroke="#000000" d="M370,-310C370,-310 197,-310 197,-310 191,-310 185,-304 185,-298 185,-298 185,-286 185,-286 185,-280 191,-274 197,-274 197,-274 370,-274 370,-274 376,-274 382,-280 382,-286 382,-286 382,-298 382,-298 382,-304 376,-310 370,-310"/>
<text text-anchor="middle" x="283.5" y="-288.3" font-family="Times,serif" font-size="14.00" fill="#314b5f">apparat/artefakt&#45;core: dev&#45;master</text>
</g>
<!-- apparat/artefakt&#45;&gt;apparat/artefakt&#45;core -->
<g id="edge2" class="edge">
<title>apparat/artefakt&#45;&gt;apparat/artefakt&#45;core</title>
<path fill="none" stroke="#1a2833" d="M101.0575,-356.9902C136.8106,-344.2542 184.9188,-327.1169 222.7575,-313.6379"/>
<polygon fill="#1a2833" stroke="#1a2833" points="224.3937,-316.7705 232.6393,-310.1177 222.0447,-310.1764 224.3937,-316.7705"/>
<text text-anchor="middle" x="203" y="-331" font-family="Times,serif" font-size="10.00" fill="#767676">dev&#45;master</text>
</g>
<!-- apparat/artefakt&#45;core&#45;&gt;php -->
<g id="edge6" class="edge">
<title>apparat/artefakt&#45;core&#45;&gt;php</title>
<path fill="none" stroke="#1a2833" d="M209.2924,-273.9014C166.6045,-261.824 119.0075,-244.9174 106.5,-227 102.6875,-221.5385 106.0362,-148.9119 108.5,-137 117.0864,-95.486 119.0735,-75.6851 155.5,-54 190.5569,-33.1302 236.9564,-24.3541 269.0241,-20.6665"/>
<polygon fill="#1a2833" stroke="#1a2833" points="269.7265,-24.1126 279.3127,-19.6009 269.0053,-17.1498 269.7265,-24.1126"/>
<text text-anchor="middle" x="121" y="-152.5" font-family="Times,serif" font-size="10.00" fill="#767676">&gt;=7.2</text>
</g>
<!-- cocur/slugify -->
<g id="node4" class="node">
<title>cocur/slugify</title>
<path fill="#eeeeee" stroke="#000000" d="M223,-227C223,-227 128,-227 128,-227 122,-227 116,-221 116,-215 116,-215 116,-203 116,-203 116,-197 122,-191 128,-191 128,-191 223,-191 223,-191 229,-191 235,-197 235,-203 235,-203 235,-215 235,-215 235,-221 229,-227 223,-227"/>
<text text-anchor="middle" x="175.5" y="-205.3" font-family="Times,serif" font-size="14.00" fill="#314b5f">cocur/slugify: v3.1</text>
</g>
<!-- apparat/artefakt&#45;core&#45;&gt;cocur/slugify -->
<g id="edge3" class="edge">
<title>apparat/artefakt&#45;core&#45;&gt;cocur/slugify</title>
<path fill="none" stroke="#1a2833" d="M260.0656,-273.9902C244.6045,-262.1081 224.1587,-246.3951 207.2442,-233.396"/>
<polygon fill="#1a2833" stroke="#1a2833" points="209.3234,-230.5797 199.2616,-227.2612 205.0578,-236.13 209.3234,-230.5797"/>
<text text-anchor="middle" x="244.5" y="-248" font-family="Times,serif" font-size="10.00" fill="#767676">^3.1</text>
</g>
<!-- ext&#45;json -->
<g id="node5" class="node">
<title>ext&#45;json</title>
<path fill="#eeeeee" stroke="#000000" d="M301.5,-227C301.5,-227 265.5,-227 265.5,-227 259.5,-227 253.5,-221 253.5,-215 253.5,-215 253.5,-203 253.5,-203 253.5,-197 259.5,-191 265.5,-191 265.5,-191 301.5,-191 301.5,-191 307.5,-191 313.5,-197 313.5,-203 313.5,-203 313.5,-215 313.5,-215 313.5,-221 307.5,-227 301.5,-227"/>
<text text-anchor="middle" x="283.5" y="-205.3" font-family="Times,serif" font-size="14.00" fill="#314b5f">ext&#45;json</text>
</g>
<!-- apparat/artefakt&#45;core&#45;&gt;ext&#45;json -->
<g id="edge4" class="edge">
<title>apparat/artefakt&#45;core&#45;&gt;ext&#45;json</title>
<path fill="none" stroke="#1a2833" d="M283.5,-273.9902C283.5,-263.2963 283.5,-249.4994 283.5,-237.3706"/>
<polygon fill="#1a2833" stroke="#1a2833" points="287.0001,-237.2612 283.5,-227.2612 280.0001,-237.2613 287.0001,-237.2612"/>
<text text-anchor="middle" x="286.5" y="-248" font-family="Times,serif" font-size="10.00" fill="#767676">*</text>
</g>
<!-- justinrainbow/json&#45;schema -->
<g id="node6" class="node">
<title>justinrainbow/json&#45;schema</title>
<path fill="#eeeeee" stroke="#000000" d="M378.5,-173C378.5,-173 204.5,-173 204.5,-173 198.5,-173 192.5,-167 192.5,-161 192.5,-161 192.5,-149 192.5,-149 192.5,-143 198.5,-137 204.5,-137 204.5,-137 378.5,-137 378.5,-137 384.5,-137 390.5,-143 390.5,-149 390.5,-149 390.5,-161 390.5,-161 390.5,-167 384.5,-173 378.5,-173"/>
<text text-anchor="middle" x="291.5" y="-151.3" font-family="Times,serif" font-size="14.00" fill="#314b5f">justinrainbow/json&#45;schema: 5.2.7</text>
</g>
<!-- apparat/artefakt&#45;core&#45;&gt;justinrainbow/json&#45;schema -->
<g id="edge5" class="edge">
<title>apparat/artefakt&#45;core&#45;&gt;justinrainbow/json&#45;schema</title>
<path fill="none" stroke="#1a2833" d="M298.025,-273.9127C307.0142,-261.5151 317.7225,-244.2484 322.5,-227 326.7709,-211.5806 328.0683,-205.9998 322.5,-191 321.2568,-187.6509 319.5468,-184.4046 317.5637,-181.3222"/>
<polygon fill="#1a2833" stroke="#1a2833" points="320.212,-179.0199 311.4121,-173.1197 314.6119,-183.2198 320.212,-179.0199"/>
<text text-anchor="middle" x="323.5" y="-248" font-family="Times,serif" font-size="10.00" fill="#767676">^5.2</text>
</g>
<!-- symfony/console -->
<g id="node7" class="node">
<title>symfony/console</title>
<path fill="#eeeeee" stroke="#000000" d="M509.5,-227C509.5,-227 381.5,-227 381.5,-227 375.5,-227 369.5,-221 369.5,-215 369.5,-215 369.5,-203 369.5,-203 369.5,-197 375.5,-191 381.5,-191 381.5,-191 509.5,-191 509.5,-191 515.5,-191 521.5,-197 521.5,-203 521.5,-203 521.5,-215 521.5,-215 521.5,-221 515.5,-227 509.5,-227"/>
<text text-anchor="middle" x="445.5" y="-205.3" font-family="Times,serif" font-size="14.00" fill="#314b5f">symfony/console: v4.1.0</text>
</g>
<!-- apparat/artefakt&#45;core&#45;&gt;symfony/console -->
<g id="edge7" class="edge">
<title>apparat/artefakt&#45;core&#45;&gt;symfony/console</title>
<path fill="none" stroke="#1a2833" d="M325.7999,-273.8908C338.0767,-268.3866 351.425,-262.1589 363.5,-256 377.7518,-248.7309 393.0421,-240.1812 406.5127,-232.3809"/>
<polygon fill="#1a2833" stroke="#1a2833" points="408.6421,-235.1905 415.5126,-227.1253 405.1122,-229.1457 408.6421,-235.1905"/>
<text text-anchor="middle" x="392.5" y="-248" font-family="Times,serif" font-size="10.00" fill="#767676">^4.1</text>
</g>
<!-- vlucas/phpdotenv -->
<g id="node8" class="node">
<title>vlucas/phpdotenv</title>
<path fill="#eeeeee" stroke="#000000" d="M695.5,-173C695.5,-173 565.5,-173 565.5,-173 559.5,-173 553.5,-167 553.5,-161 553.5,-161 553.5,-149 553.5,-149 553.5,-143 559.5,-137 565.5,-137 565.5,-137 695.5,-137 695.5,-137 701.5,-137 707.5,-143 707.5,-149 707.5,-149 707.5,-161 707.5,-161 707.5,-167 701.5,-173 695.5,-173"/>
<text text-anchor="middle" x="630.5" y="-151.3" font-family="Times,serif" font-size="14.00" fill="#314b5f">vlucas/phpdotenv: v2.4.0</text>
</g>
<!-- apparat/artefakt&#45;core&#45;&gt;vlucas/phpdotenv -->
<g id="edge8" class="edge">
<title>apparat/artefakt&#45;core&#45;&gt;vlucas/phpdotenv</title>
<path fill="none" stroke="#1a2833" d="M382.276,-274.6946C428.6639,-264.4094 483.8771,-248.9875 530.5,-227 556.7423,-214.624 583.2463,-195.1529 602.3692,-179.578"/>
<polygon fill="#1a2833" stroke="#1a2833" points="604.628,-182.2517 610.0905,-173.1736 600.1591,-176.8638 604.628,-182.2517"/>
<text text-anchor="middle" x="492.5" y="-248" font-family="Times,serif" font-size="10.00" fill="#767676">^2.4</text>
</g>
<!-- cocur/slugify&#45;&gt;php -->
<g id="edge10" class="edge">
<title>cocur/slugify&#45;&gt;php</title>
<path fill="none" stroke="#1a2833" d="M162.1662,-190.7471C144.9511,-164.7436 119.7546,-116.4817 142.5,-83 170.7795,-41.372 230.3216,-26.4037 269.3431,-21.0216"/>
<polygon fill="#1a2833" stroke="#1a2833" points="269.7794,-24.4944 279.2756,-19.7962 268.9223,-17.5471 269.7794,-24.4944"/>
<text text-anchor="middle" x="159" y="-98.5" font-family="Times,serif" font-size="10.00" fill="#767676">&gt;=5.5.9</text>
</g>
<!-- ext&#45;mbstring -->
<g id="node9" class="node">
<title>ext&#45;mbstring</title>
<path fill="#eeeeee" stroke="#000000" d="M258.5,-119C258.5,-119 196.5,-119 196.5,-119 190.5,-119 184.5,-113 184.5,-107 184.5,-107 184.5,-95 184.5,-95 184.5,-89 190.5,-83 196.5,-83 196.5,-83 258.5,-83 258.5,-83 264.5,-83 270.5,-89 270.5,-95 270.5,-95 270.5,-107 270.5,-107 270.5,-113 264.5,-119 258.5,-119"/>
<text text-anchor="middle" x="227.5" y="-97.3" font-family="Times,serif" font-size="14.00" fill="#314b5f">ext&#45;mbstring</text>
</g>
<!-- cocur/slugify&#45;&gt;ext&#45;mbstring -->
<g id="edge9" class="edge">
<title>cocur/slugify&#45;&gt;ext&#45;mbstring</title>
<path fill="none" stroke="#1a2833" d="M174.5549,-190.734C174.5499,-175.4759 176.423,-153.6118 185.5,-137 187.5722,-133.2076 190.2137,-129.636 193.1603,-126.325"/>
<polygon fill="#1a2833" stroke="#1a2833" points="195.8229,-128.614 200.465,-119.0903 190.897,-123.6405 195.8229,-128.614"/>
<text text-anchor="middle" x="188.5" y="-152.5" font-family="Times,serif" font-size="10.00" fill="#767676">*</text>
</g>
<!-- justinrainbow/json&#45;schema&#45;&gt;php -->
<g id="edge11" class="edge">
<title>justinrainbow/json&#45;schema&#45;&gt;php</title>
<path fill="none" stroke="#1a2833" d="M293.4919,-136.8075C296.0246,-113.675 300.4252,-73.4836 303.3988,-46.3242"/>
<polygon fill="#1a2833" stroke="#1a2833" points="306.8906,-46.5893 304.4999,-36.2678 299.9322,-45.8274 306.8906,-46.5893"/>
<text text-anchor="middle" x="315" y="-98.5" font-family="Times,serif" font-size="10.00" fill="#767676">&gt;=5.3.3</text>
</g>
<!-- symfony/console&#45;&gt;php -->
<g id="edge12" class="edge">
<title>symfony/console&#45;&gt;php</title>
<path fill="none" stroke="#1a2833" d="M432.1721,-190.6861C407.4716,-156.7452 354.4976,-83.9535 325.8478,-44.5858"/>
<polygon fill="#1a2833" stroke="#1a2833" points="328.5018,-42.2845 319.7876,-36.2584 322.8419,-46.4035 328.5018,-42.2845"/>
<text text-anchor="middle" x="390" y="-98.5" font-family="Times,serif" font-size="10.00" fill="#767676">^7.1.3</text>
</g>
<!-- symfony/polyfill&#45;mbstring -->
<g id="node10" class="node">
<title>symfony/polyfill&#45;mbstring</title>
<path fill="#eeeeee" stroke="#000000" d="M610,-119C610,-119 431,-119 431,-119 425,-119 419,-113 419,-107 419,-107 419,-95 419,-95 419,-89 425,-83 431,-83 431,-83 610,-83 610,-83 616,-83 622,-89 622,-95 622,-95 622,-107 622,-107 622,-113 616,-119 610,-119"/>
<text text-anchor="middle" x="520.5" y="-97.3" font-family="Times,serif" font-size="14.00" fill="#314b5f">symfony/polyfill&#45;mbstring: v1.8.0</text>
</g>
<!-- symfony/console&#45;&gt;symfony/polyfill&#45;mbstring -->
<g id="edge13" class="edge">
<title>symfony/console&#45;&gt;symfony/polyfill&#45;mbstring</title>
<path fill="none" stroke="#1a2833" d="M458.2227,-190.6793C470.3093,-173.2746 488.6116,-146.9193 502.2514,-127.278"/>
<polygon fill="#1a2833" stroke="#1a2833" points="505.136,-129.2603 507.9652,-119.0502 499.3864,-125.2675 505.136,-129.2603"/>
<text text-anchor="middle" x="503" y="-152.5" font-family="Times,serif" font-size="10.00" fill="#767676">~1.0</text>
</g>
<!-- vlucas/phpdotenv&#45;&gt;php -->
<g id="edge15" class="edge">
<title>vlucas/phpdotenv&#45;&gt;php</title>
<path fill="none" stroke="#1a2833" d="M636.6627,-136.9085C640.8644,-120.9193 643.7055,-97.8883 631.5,-83 595.4389,-39.0126 421.2452,-24.1994 343.7772,-19.7339"/>
<polygon fill="#1a2833" stroke="#1a2833" points="343.6893,-16.2239 333.5125,-19.1705 343.3056,-23.2133 343.6893,-16.2239"/>
<text text-anchor="middle" x="656" y="-98.5" font-family="Times,serif" font-size="10.00" fill="#767676">&gt;=5.3.9</text>
</g>
<!-- symfony/polyfill&#45;mbstring&#45;&gt;php -->
<g id="edge14" class="edge">
<title>symfony/polyfill&#45;mbstring&#45;&gt;php</title>
<path fill="none" stroke="#1a2833" d="M474.0652,-82.9902C434.8502,-67.7807 379.4521,-46.2945 343.2605,-32.2576"/>
<polygon fill="#1a2833" stroke="#1a2833" points="344.1803,-28.8604 333.5914,-28.5074 341.6491,-35.3867 344.1803,-28.8604"/>
<text text-anchor="middle" x="442" y="-57" font-family="Times,serif" font-size="10.00" fill="#767676">&gt;=5.3.3</text>
</g>
</g>
</svg>
